<svg width="30" height="24" viewBox="0 0 30 24" fill="none" xmlns="http://www.w3.org/2000/svg">
<path d="M25.4966 4.57945C25.0984 4.18131 24.4734 4.1226 24.0079 4.43977C22.2545 5.63496 13.4593 11.645 12.5141 12.5902C11.1433 13.961 11.1433 16.1913 12.5141 17.5621C13.1995 18.2474 14.0998 18.5901 15 18.5901C15.9003 18.5901 16.8006 18.2474 17.486 17.5621C18.4312 16.6168 24.4411 7.82168 25.6364 6.0682C25.9534 5.60279 25.8948 4.97772 25.4966 4.57945ZM15.8286 15.9047C15.3718 16.3617 14.6283 16.3617 14.1714 15.9047C13.7145 15.4479 13.7144 14.7046 14.1712 14.2477C14.5384 13.8848 17.0355 12.1039 20.1078 9.96832C17.9723 13.0406 16.1914 15.5376 15.8286 15.9047Z" fill="white"/>
<path d="M5.40416 20.5267L3.95748 21.2324C2.89893 19.3433 2.34375 17.2346 2.34375 15.0761C2.34375 13.4946 2.63537 11.9799 3.16758 10.583L4.82525 11.3781C4.98873 11.4565 5.16129 11.4936 5.33127 11.4936C5.76797 11.4936 6.18721 11.2484 6.38871 10.8283C6.66855 10.2448 6.42246 9.54474 5.83887 9.26484L4.20223 8.4798C6.23643 5.16222 9.75598 2.84924 13.8282 2.47365V4.23621C13.8282 4.88344 14.3528 5.40808 15.0001 5.40808C15.6473 5.40808 16.1719 4.88344 16.1719 4.23621V2.47277C17.5681 2.59986 18.919 2.95541 20.2015 3.53431C20.7912 3.80062 21.4854 3.53818 21.7517 2.94843C22.018 2.35851 21.7557 1.66447 21.1658 1.39816C19.2224 0.520954 17.148 0.0761108 15 0.0761108C10.9934 0.0761108 7.22654 1.63634 4.39336 4.46947C1.56029 7.30265 0 11.0695 0 15.0761C0 18.0369 0.878789 20.9164 2.54139 23.4032C2.76533 23.738 3.13559 23.9238 3.51633 23.9238C3.68941 23.9238 3.86473 23.8854 4.02943 23.8051L6.43178 22.6332C7.0135 22.3495 7.25502 21.6479 6.97125 21.0662C6.68748 20.4845 5.98588 20.2431 5.40416 20.5267Z" fill="white"/>
<path d="M28.6779 8.9104C28.4117 8.32054 27.7177 8.05804 27.1276 8.32447C26.5378 8.59077 26.2754 9.28482 26.5418 9.87468C27.2813 11.5128 27.6563 13.2629 27.6563 15.0761C27.6563 17.2379 27.0993 19.3499 26.0376 21.2412L24.5272 20.522C23.943 20.2438 23.2437 20.4918 22.9654 21.0762C22.6871 21.6605 22.9352 22.3598 23.5196 22.6381L25.9805 23.81C26.1424 23.887 26.3141 23.9239 26.4837 23.9239C26.8646 23.9239 27.2349 23.7378 27.4586 23.4032C29.1212 20.9164 30 18.0368 30 15.0761C30 12.9281 29.5552 10.8537 28.6779 8.9104Z" fill="white"/>
</svg>
