<svg width="149" height="33" viewBox="0 0 149 33" fill="none" xmlns="http://www.w3.org/2000/svg">
<path d="M54.1317 16.6C54.1317 18.712 53.4117 20.608 52.2117 22.096L53.8917 23.872L51.1317 26.32L49.3317 24.424C48.1557 25 46.8117 25.336 45.3957 25.336C40.5717 25.336 36.6597 21.544 36.6597 16.6C36.6597 11.656 40.5717 7.864 45.3957 7.864C50.2197 7.864 54.1317 11.656 54.1317 16.6ZM45.3957 21.592C45.8037 21.592 46.1877 21.544 46.5717 21.472L44.1477 18.904L46.9077 16.456L49.5957 19.312C50.0277 18.544 50.2917 17.632 50.2917 16.6C50.2917 13.6 48.1317 11.608 45.3957 11.608C42.6597 11.608 40.4997 13.6 40.4997 16.6C40.4997 19.6 42.6597 21.592 45.3957 21.592ZM69.4909 13H73.3309L69.4909 25H66.1309L64.2109 18.592L62.2909 25H58.9309L55.0909 13H58.9309L60.6589 19.432L62.5309 13H65.8909L67.7629 19.432L69.4909 13ZM76.5597 11.944C75.3837 11.944 74.3997 10.96 74.3997 9.784C74.3997 8.608 75.3837 7.624 76.5597 7.624C77.7357 7.624 78.7197 8.608 78.7197 9.784C78.7197 10.96 77.7357 11.944 76.5597 11.944ZM74.7597 25V13H78.3597V25H74.7597ZM92.5141 25H88.4341L84.5941 19.696V25H80.9941V8.2H84.5941V18.256L88.1941 13H92.3941L88.0261 19L92.5141 25ZM96.5193 16.504C96.5193 17.872 102.423 16.96 102.423 21.4C102.423 24.16 100.023 25.336 97.4313 25.336C95.0313 25.336 93.2073 24.424 92.2713 22.48L95.3913 20.704C95.7033 21.616 96.3753 22.12 97.4313 22.12C98.2953 22.12 98.7273 21.856 98.7273 21.376C98.7273 20.056 92.8233 20.752 92.8233 16.6C92.8233 13.984 95.0313 12.664 97.5273 12.664C99.4713 12.664 101.199 13.528 102.207 15.232L99.1353 16.888C98.7993 16.264 98.3193 15.832 97.5273 15.832C96.9033 15.832 96.5193 16.072 96.5193 16.504ZM115.741 25H111.661L107.821 19.696V25H104.221V8.2H107.821V18.256L111.421 13H115.621L111.253 19L115.741 25ZM118.864 11.944C117.688 11.944 116.704 10.96 116.704 9.784C116.704 8.608 117.688 7.624 118.864 7.624C120.04 7.624 121.024 8.608 121.024 9.784C121.024 10.96 120.04 11.944 118.864 11.944ZM117.064 25V13H120.664V25H117.064ZM123.299 25V7.48H126.899V25H123.299ZM129.533 25V7.48H133.133V25H129.533ZM139.058 16.504C139.058 17.872 144.962 16.96 144.962 21.4C144.962 24.16 142.562 25.336 139.97 25.336C137.57 25.336 135.746 24.424 134.81 22.48L137.93 20.704C138.242 21.616 138.914 22.12 139.97 22.12C140.834 22.12 141.266 21.856 141.266 21.376C141.266 20.056 135.362 20.752 135.362 16.6C135.362 13.984 137.57 12.664 140.066 12.664C142.01 12.664 143.738 13.528 144.746 15.232L141.674 16.888C141.338 16.264 140.858 15.832 140.066 15.832C139.442 15.832 139.058 16.072 139.058 16.504Z" fill="#68CC58"/>
<path d="M23.7483 20.8388L19.6014 24.9858L17.4399 13.3251L5.77916 11.1636L9.92553 7.0166L21.5868 9.1781L23.7483 20.8388Z" fill="#68CC58"/>
<path d="M17.9692 26.6179L13.8222 30.7648L11.6607 19.1035L0 16.942L4.14696 12.7957L15.8077 14.9572L17.9692 26.6179Z" fill="#CFFFC8"/>
</svg>
