<svg width="101" height="101" viewBox="0 0 101 101" fill="none" xmlns="http://www.w3.org/2000/svg">
<path d="M29.8747 44.3828C29.8747 39.3343 25.7674 35.227 20.7189 35.227C15.6702 35.227 11.563 39.3343 11.563 44.3828C11.563 49.4315 15.6702 53.5387 20.7189 53.5387C25.7674 53.5387 29.8747 49.4313 29.8747 44.3828ZM17.4658 44.3828C17.4658 42.589 18.9251 41.1296 20.7191 41.1296C22.5127 41.1296 23.9721 42.589 23.9721 44.3828C23.9721 46.1766 22.5127 47.6359 20.7191 47.6359C18.9251 47.6359 17.4658 46.1766 17.4658 44.3828Z" fill="white"/>
<path d="M20.7246 73.1438L22.7267 71.2857C23.1207 70.9198 32.4224 62.2785 35.948 58.2172C39.4459 54.1881 41.2947 49.4041 41.2947 44.3828C41.2947 33.0373 32.0646 23.807 20.7191 23.807C20.7189 23.807 20.7191 23.807 20.7187 23.807C15.2404 23.807 10.09 25.9228 6.21724 29.7643C2.34387 33.6064 0.186971 38.7394 0.143695 44.2178C0.10514 49.1492 1.93118 53.9646 5.4251 58.1433C8.61019 61.9529 18.3065 70.9116 18.7176 71.2914L20.7246 73.1438ZM9.95331 54.3572C8.15147 52.2023 6.01129 48.7019 6.0461 44.2644C6.07679 40.3542 7.61386 36.6929 10.3739 33.9551C13.1339 31.2173 16.8078 29.7098 20.7189 29.7098C28.8097 29.7098 35.3917 36.2922 35.3917 44.383C35.3917 48.9045 33.27 52.2977 31.4904 54.3478C29.123 57.075 23.6742 62.2877 20.7136 65.0815C17.6823 62.235 12.0665 56.8847 9.95331 54.3572Z" fill="white"/>
<path d="M78.2795 47.6033H68.5018C59.3072 47.6033 51.8268 40.1227 51.8268 30.9282V30.9067C51.8268 21.7122 59.3072 14.2318 68.5018 14.2318H73.3146C74.6384 18.8509 78.8972 22.2422 83.9358 22.2422C90.0286 22.2422 94.9857 17.2853 94.9857 11.1925C94.9857 5.09969 90.0288 0.142853 83.936 0.142853C78.8336 0.142853 74.5297 3.62025 73.2646 8.32904H68.5018C56.0523 8.32904 45.924 18.4573 45.924 30.9067V30.9282C45.924 43.3776 56.0523 53.5061 68.5018 53.5061H78.2795C87.474 53.5061 94.9544 60.9865 94.9544 70.1812C94.9544 79.3757 87.4742 86.8561 78.2795 86.8561H31.3651C30.0704 82.1921 25.7896 78.7578 20.7189 78.7578C14.6261 78.7578 9.66907 83.7147 9.66907 89.8075C9.66907 95.9003 14.6261 100.857 20.7189 100.857C25.7894 100.857 30.0704 97.4226 31.3651 92.7587H78.2797C90.7289 92.7587 100.857 82.6304 100.857 70.1812C100.857 57.7318 90.7289 47.6033 78.2795 47.6033ZM83.936 6.04565C86.7739 6.04565 89.0831 8.35461 89.0831 11.1927C89.0831 14.0308 86.7739 16.3396 83.936 16.3396C81.0981 16.3396 78.789 14.0306 78.789 11.1927C78.789 8.3548 81.0979 6.04565 83.936 6.04565ZM20.7189 94.9543C17.8808 94.9543 15.5719 92.6454 15.5719 89.8073C15.5719 86.9692 17.8808 84.6604 20.7189 84.6604C23.5568 84.6604 25.8658 86.9694 25.8658 89.8073C25.8658 92.6452 23.557 94.9543 20.7189 94.9543Z" fill="white"/>
</svg>
